<?xml version="1.0" encoding="utf-8"?>
<!-- Generator: Adobe Illustrator 16.2.0, SVG Export Plug-In . SVG Version: 6.00 Build 0)  -->
<!DOCTYPE svg PUBLIC "-//W3C//DTD SVG 1.1//EN" "http://www.w3.org/Graphics/SVG/1.1/DTD/svg11.dtd">
<svg version="1.1" xmlns="http://www.w3.org/2000/svg" xmlns:xlink="http://www.w3.org/1999/xlink" x="0px" y="0px"
	 width="222.833px" height="131.039px" viewBox="0 0 222.833 131.039" enable-background="new 0 0 222.833 131.039"
	 xml:space="preserve">
<g id="Layer_1">
</g>
<g id="Layer_2">
</g>
<g id="bg" opacity="0.5">
</g>
<g id="bg_copy_2" opacity="0.5">
</g>
<g id="bg4">
</g>
<g id="dots_2_">
</g>
<g id="bg_copy" opacity="0.5">
</g>
<g id="lines">
</g>
<g id="Layer_11">
</g>
<g id="dots">
</g>
<g id="lines_copy">
</g>
<g id="dots_copy">
</g>
<g id="_x34_d">
</g>
<g id="bg5">
</g>
<g id="lines_copy_2">
</g>
<g id="linetria_10">
</g>
<g id="linemap_10">
</g>
<g id="dots_10">
</g>
<g id="map">
</g>
<g id="greylines">
</g>
<g id="lines5">
</g>
<g id="dots_1_">
</g>
<g id="Layer_15">
</g>
<g id="Layer_28">
</g>
<g id="dots_copy_3">
</g>
<g id="Layer_30">
</g>
<g id="Layer_10">
</g>
<g id="dots_copy_2">
</g>
<g id="numbers">
</g>
<g id="Layer_25">
</g>
<g id="_x34_a">
</g>
<g id="logo">
	<g>
		<path fill="#010101" d="M18.364,126.356c-0.598,0-1.124-0.207-1.564-0.615c-0.45-0.416-0.688-0.955-0.688-1.557
			c0-0.589,0.236-1.122,0.682-1.544c0.883-0.831,2.305-0.813,3.154,0.003c0.438,0.423,0.668,0.955,0.668,1.542
			c0,0.6-0.233,1.136-0.673,1.552C19.514,126.141,18.968,126.356,18.364,126.356 M13.798,126.356c-0.59,0-1.131-0.213-1.565-0.615
			c-0.45-0.418-0.686-0.956-0.686-1.557c0-0.588,0.235-1.12,0.678-1.543c0.876-0.825,2.278-0.822,3.144-0.001
			c0.446,0.421,0.682,0.956,0.682,1.544c0,0.602-0.238,1.142-0.689,1.557C14.931,126.143,14.39,126.356,13.798,126.356
			 M15.931,120.92c-2.324,0-4.282-0.208-5.821-0.618c-1.574-0.418-2.856-1.007-3.809-1.745c-0.985-0.761-1.685-1.68-2.083-2.729
			c-0.377-0.994-0.569-2.098-0.569-3.281v-5.541h3.586v5.073c0,1.827,0.622,3.122,1.899,3.957c1.364,0.889,3.681,1.342,6.886,1.342
			c1.21,0,2.375-0.064,3.463-0.188c1.069-0.122,2.011-0.311,2.8-0.561c0.745-0.236,1.333-0.527,1.747-0.864
			c0.409-0.333,0.457-0.637,0.457-0.835c0-0.085,0-0.342-0.399-0.703c-0.377-0.344-0.868-0.66-1.461-0.943
			c-0.628-0.299-1.329-0.57-2.082-0.801c-0.785-0.241-1.53-0.456-2.237-0.643l-1.58-0.393v-3.635l0.99,0.293
			c0.591,0.175,1.221,0.347,1.892,0.516c0.66,0.167,1.349,0.321,2.048,0.458c0.684,0.133,1.368,0.243,2.036,0.324
			c0.644,0.08,1.247,0.119,1.792,0.119h12.176v-8.364h3.675v11.941H27.322c0.081,0.143,0.151,0.286,0.21,0.43
			c0.243,0.599,0.366,1.154,0.366,1.649c0,0.798-0.24,1.563-0.711,2.276c-0.458,0.695-1.198,1.313-2.199,1.834
			c-0.946,0.492-2.18,0.892-3.667,1.188C19.855,120.772,18.042,120.92,15.931,120.92 M39.085,118.719
			c-0.594,0-1.134-0.214-1.562-0.62c-0.439-0.414-0.673-0.95-0.673-1.551c0-0.573,0.23-1.1,0.665-1.526
			c0.86-0.85,2.307-0.838,3.16,0c0.434,0.431,0.662,0.958,0.662,1.525c0,0.597-0.232,1.133-0.67,1.55
			C40.235,118.505,39.689,118.719,39.085,118.719"/>
		<path fill="#010101" d="M44.499,120.103v-3.594l0.739-0.031c0.973-0.042,1.737-0.18,2.274-0.413
			c0.48-0.208,0.83-0.508,1.069-0.915c0.267-0.452,0.444-1.047,0.527-1.774c0.089-0.795,0.134-1.77,0.134-2.897v-9.324h3.59v5.106
			c0,1.111,0.179,1.975,0.532,2.563c0.104,0.174,0.419,0.7,1.781,0.7c0.553,0,6.153,0.114,6.489,0.348
			c0.288,0.199,0.632,0.605,0.632,1.407c0,0.724-0.221,1.232-0.657,1.51c-0.331,0.21-5.924,0.312-6.464,0.312
			c-0.941,0-1.729-0.158-2.361-0.472c-0.05,0.861-0.14,1.632-0.269,2.305c-0.22,1.16-0.625,2.132-1.204,2.884
			c-0.596,0.775-1.416,1.341-2.436,1.686c-0.939,0.316-2.142,0.507-3.574,0.565L44.499,120.103z"/>
		<path fill="#010101" d="M78.05,113.101h-5.308c-0.719,0-1.426-0.103-2.1-0.308c-0.597-0.181-1.192-0.503-1.811-0.98
			c-1.01,0.382-2.075,0.688-3.173,0.908c-1.26,0.252-2.572,0.381-3.899,0.381h-6.65c-0.554,0-0.985-0.113-1.322-0.346
			c-0.288-0.2-0.63-0.607-0.63-1.41c0-0.721,0.219-1.229,0.652-1.507c0.332-0.211,0.756-0.314,1.299-0.314h6.473
			c0.944,0,1.896-0.073,2.829-0.216c0.518-0.079,1.032-0.18,1.539-0.302c-0.464-0.507-0.946-1.03-1.448-1.57
			c-0.82-0.88-1.589-1.716-2.309-2.507l-0.3-0.33l0.136-0.425c0.159-0.492,0.374-0.99,0.639-1.481
			c0.288-0.526,0.521-0.892,0.736-1.155l0.071-0.075c0.791-0.738,1.75-1.337,2.852-1.785c1.106-0.447,2.31-0.672,3.577-0.672
			c1.05,0,1.983,0.123,2.769,0.368c0.794,0.246,1.472,0.574,2.012,0.975c0.568,0.424,0.996,0.925,1.271,1.489
			c0.274,0.558,0.414,1.139,0.414,1.724c0,1.428-0.479,2.763-1.424,3.968c-0.555,0.708-1.225,1.371-2.003,1.982
			c0.234,0.009,0.485,0.013,0.754,0.013h4.353c0.554,0,0.986,0.114,1.322,0.348c0.288,0.201,0.63,0.607,0.63,1.407
			c0,0.722-0.22,1.229-0.652,1.508C79.016,112.999,78.591,113.101,78.05,113.101 M65.672,103.926l3.794,3.79
			c0.928-0.511,1.716-1.085,2.347-1.711c0.652-0.648,0.969-1.296,0.969-1.979c0-0.133,0-0.539-0.626-1.025
			c-0.477-0.368-1.289-0.555-2.412-0.555c-0.883,0-1.753,0.188-2.584,0.559C66.588,103.261,66.09,103.569,65.672,103.926"/>
		<path fill="#010101" d="M90.839,113.101H78.014c-0.552,0-0.983-0.113-1.32-0.346c-0.287-0.198-0.632-0.604-0.632-1.409
			c0-0.724,0.221-1.232,0.657-1.509c0.33-0.21,0.754-0.313,1.295-0.313h9.167V88.867h3.658V113.101z"/>
		<rect x="94.178" y="88.867" fill="#010101" width="3.659" height="24.233"/>
		<path fill="#010101" d="M18.047,88.506c-0.596,0-1.141-0.221-1.577-0.64c-0.443-0.431-0.675-0.959-0.675-1.531
			c0-0.599,0.235-1.139,0.68-1.56c0.87-0.823,2.274-0.823,3.144-0.001c0.445,0.422,0.68,0.962,0.68,1.561
			c0,0.572-0.232,1.1-0.673,1.529C19.188,88.285,18.643,88.506,18.047,88.506 M32.429,82.771H10.766
			c-1.321,0-2.063-0.085-2.971-0.254c-0.968-0.18-1.764-0.483-2.368-0.898c-0.644-0.443-1.112-1.031-1.391-1.748
			c-0.257-0.655-0.388-1.459-0.388-2.389v-5.539h3.659v4.556c0,0.66,0.074,1.186,0.22,1.564c0.114,0.295,0.301,0.502,0.593,0.651
			C8.488,78.9,9.02,79.027,9.7,79.09c0.752,0.069,1.338,0.105,2.511,0.105H28.77v-8.372h3.66V82.771z"/>
		<path fill="#010101" d="M41.865,82.771h-0.686c-0.754,0-1.453-0.077-2.078-0.23c-0.676-0.163-1.271-0.449-1.767-0.85
			c-0.502-0.406-0.897-0.949-1.172-1.613c-0.261-0.638-0.393-1.41-0.393-2.296V58.537h3.622v18.511c0,0.472,0.033,0.874,0.1,1.196
			c0.047,0.225,0.129,0.399,0.248,0.527c0.122,0.129,0.299,0.226,0.542,0.292c0.313,0.087,0.74,0.131,1.268,0.131h0.316
			c0.522,0,0.957,0.115,1.291,0.342c0.294,0.2,0.646,0.608,0.646,1.412c0,0.727-0.226,1.236-0.672,1.514
			C42.798,82.67,42.384,82.771,41.865,82.771"/>
		<path fill="#010101" d="M46.269,88.39c-0.583,0-1.104-0.204-1.55-0.608c-0.46-0.421-0.702-0.961-0.702-1.563
			c0-0.575,0.238-1.105,0.688-1.535c0.909-0.856,2.306-0.817,3.158,0.002c0.443,0.432,0.676,0.96,0.676,1.532
			c0,0.6-0.236,1.137-0.685,1.555C47.419,88.177,46.871,88.39,46.269,88.39 M52.868,82.771c-0.888,0-1.711-0.158-2.45-0.469
			c-0.485-0.204-0.899-0.503-1.239-0.895c-0.104,0.097-0.211,0.188-0.32,0.271c-0.381,0.292-0.807,0.525-1.267,0.689
			c-0.444,0.16-0.951,0.269-1.507,0.325c-0.519,0.052-1.113,0.078-1.767,0.078h-2.505c-0.554,0-0.986-0.112-1.322-0.346
			c-0.287-0.2-0.629-0.606-0.629-1.409c0-0.721,0.22-1.228,0.652-1.506c0.334-0.212,0.758-0.314,1.3-0.314h2.223
			c0.446,0,0.882-0.016,1.296-0.048c0.345-0.026,0.638-0.097,0.893-0.215c0.183-0.084,0.332-0.23,0.452-0.445
			c0.092-0.163,0.202-0.483,0.202-1.089v-8.241h3.674v6.774c0,1.111,0.178,1.976,0.528,2.567c0.102,0.173,0.411,0.697,1.787,0.697
			c0.537,0,0.963,0.111,1.303,0.34c0.297,0.2,0.649,0.607,0.649,1.414c0,0.729-0.226,1.238-0.673,1.515
			C53.812,82.671,53.394,82.771,52.868,82.771"/>
		<path fill="#010101" d="M74.165,82.805c-0.475,0-0.954-0.027-1.425-0.08c-0.509-0.057-0.999-0.168-1.458-0.332
			c-0.474-0.165-0.922-0.399-1.328-0.696c-0.147-0.108-0.286-0.229-0.413-0.36c-0.547,0.528-1.169,0.888-1.857,1.074
			c-0.894,0.242-1.964,0.359-3.27,0.359c-0.469,0-0.949-0.026-1.424-0.08c-0.5-0.056-0.987-0.163-1.449-0.319
			c-0.491-0.166-0.943-0.403-1.344-0.707c-0.149-0.111-0.287-0.233-0.415-0.367c-0.099,0.095-0.199,0.183-0.301,0.266
			c-0.365,0.298-0.817,0.545-1.343,0.736c-0.513,0.185-1.138,0.311-1.86,0.376c-0.683,0.063-1.528,0.094-2.582,0.094h-0.863
			c-0.557,0-0.991-0.114-1.325-0.348c-0.285-0.198-0.629-0.604-0.629-1.407c0-0.721,0.22-1.228,0.655-1.506
			c0.329-0.211,0.754-0.314,1.299-0.314h0.935c0.847,0,1.554-0.025,2.099-0.072c0.458-0.041,0.828-0.134,1.098-0.279
			c0.203-0.108,0.334-0.252,0.414-0.454c0.076-0.193,0.167-0.566,0.167-1.226v-6.373h3.657v5.139c0,0.574,0.036,1.091,0.106,1.539
			c0.056,0.367,0.18,0.665,0.379,0.916c0.193,0.244,0.477,0.431,0.866,0.571c0.435,0.159,1.072,0.239,1.897,0.239
			c0.551,0,1.039-0.024,1.447-0.071c0.305-0.035,0.55-0.114,0.725-0.235c0.153-0.106,0.272-0.269,0.363-0.499
			c0.077-0.195,0.168-0.565,0.168-1.226v-6.34h3.622v5.106c0,0.56,0.046,1.066,0.135,1.504c0.079,0.391,0.212,0.725,0.397,0.992
			c0.162,0.233,0.395,0.412,0.712,0.544c0.354,0.149,0.827,0.224,1.403,0.224c0.435,0,0.845-0.023,1.223-0.07
			c0.288-0.035,0.528-0.117,0.734-0.25c0.172-0.112,0.31-0.283,0.419-0.523c0.085-0.185,0.187-0.541,0.187-1.187v-8.008h3.64v6.774
			c0,0.563,0.038,1.078,0.113,1.533c0.063,0.376,0.187,0.688,0.376,0.947c0.176,0.244,0.415,0.427,0.729,0.561
			c0.342,0.148,0.81,0.223,1.396,0.223c0.542,0,0.968,0.112,1.304,0.346c0.29,0.203,0.63,0.609,0.63,1.408
			c0,0.723-0.219,1.23-0.653,1.508c-0.332,0.211-0.75,0.313-1.281,0.313c-0.891,0-1.748-0.137-2.547-0.406
			c-0.561-0.189-1.029-0.484-1.403-0.88c-0.403,0.355-0.861,0.637-1.369,0.84C76.129,82.643,75.202,82.805,74.165,82.805
			 M71.272,66.801c-0.594,0-1.135-0.216-1.562-0.623c-0.438-0.413-0.672-0.95-0.672-1.55c0-0.591,0.235-1.121,0.68-1.533
			c0.858-0.8,2.286-0.785,3.129,0.001c0.443,0.411,0.678,0.941,0.678,1.531c0,0.599-0.233,1.136-0.675,1.553
			C72.427,66.585,71.88,66.801,71.272,66.801 M66.724,66.801c-0.601,0-1.148-0.213-1.582-0.615c-0.45-0.415-0.688-0.954-0.688-1.557
			c0-0.594,0.24-1.126,0.694-1.539c0.433-0.392,0.978-0.601,1.576-0.601c0.586,0,1.105,0.203,1.542,0.603
			c0.452,0.41,0.692,0.942,0.692,1.536c0,0.604-0.239,1.143-0.69,1.559C67.84,66.587,67.306,66.801,66.724,66.801 M69.07,62.8
			c-0.607,0-1.156-0.219-1.585-0.634c-0.436-0.419-0.667-0.951-0.667-1.538c0-0.592,0.235-1.122,0.679-1.533
			c0.428-0.396,0.972-0.606,1.573-0.606c0.592,0,1.118,0.2,1.562,0.596c0.464,0.416,0.708,0.949,0.708,1.543
			c0,0.589-0.24,1.124-0.695,1.547C70.204,62.584,69.66,62.8,69.07,62.8"/>
		<path fill="#010101" d="M90.856,82.771h-8.67c-0.553,0-0.984-0.112-1.32-0.346c-0.287-0.196-0.632-0.603-0.632-1.409
			c0-0.724,0.222-1.231,0.658-1.509c0.33-0.209,0.753-0.312,1.294-0.312h5.013V58.537h3.657V82.771z M81.741,81.155L81.741,81.155
			L81.741,81.155z"/>
		<rect x="94.196" y="58.538" fill="#010101" width="3.659" height="24.233"/>
		<path fill="#010101" d="M22.194,36.303v4.335c0,0.612,0.048,1.165,0.141,1.659c0.094,0.496,0.291,0.92,0.591,1.276
			c0.3,0.356,0.738,0.627,1.312,0.816c0.576,0.19,1.352,0.284,2.33,0.284c0.517-1.267,1.172-2.528,1.964-3.785
			c0.795-1.256,1.732-2.378,2.813-3.368c1.082-0.989,2.288-1.798,3.624-2.426c1.332-0.627,2.794-0.941,4.381-0.941
			c2.245,0,3.979,0.636,5.208,1.909s1.845,3.059,1.845,5.36v5.285H27.148c-0.682,0-1.285-0.017-1.807-0.049
			c-0.523-0.034-0.98-0.109-1.374-0.226c-0.396-0.117-0.735-0.275-1.024-0.475c-0.288-0.2-0.539-0.467-0.75-0.801v1.518
			c0,2.778-0.749,4.787-2.248,6.027c-1.499,1.239-3.84,1.859-7.026,1.859c-3.065,0-5.379-0.63-6.938-1.893
			c-1.557-1.262-2.333-3.176-2.333-5.743v-4.77h2.115v4.235c0,2.267,0.604,3.862,1.817,4.785c1.208,0.922,3.013,1.384,5.411,1.384
			c1.258,0,2.333-0.086,3.226-0.259c0.893-0.172,1.632-0.48,2.213-0.925c0.582-0.444,1.012-1.048,1.288-1.809
			c0.274-0.761,0.414-1.737,0.414-2.926V36.303H22.194z M44.321,44.673v-2.601c0-0.856-0.098-1.642-0.292-2.359
			c-0.192-0.717-0.509-1.328-0.941-1.833c-0.436-0.506-0.999-0.903-1.694-1.193c-0.691-0.289-1.533-0.433-2.521-0.433
			c-1.163,0-2.262,0.247-3.295,0.741c-1.034,0.495-1.97,1.146-2.803,1.952c-0.835,0.806-1.575,1.708-2.214,2.708
			c-0.64,1.001-1.144,2.007-1.507,3.019H44.321z"/>
		<path fill="#010101" d="M53.948,40.638c0,1.257,0.212,2.243,0.642,2.96c0.429,0.717,1.242,1.075,2.442,1.075
			c0.386,0,0.68,0.07,0.881,0.208c0.201,0.139,0.3,0.398,0.3,0.775c0,0.445-0.1,0.731-0.3,0.859s-0.495,0.191-0.881,0.191
			c-1.564,0-2.591-0.477-3.084-1.434c0,1.546-0.102,2.843-0.303,3.893c-0.198,1.051-0.552,1.903-1.057,2.56
			s-1.197,1.131-2.071,1.426c-0.875,0.294-1.996,0.469-3.359,0.526v-2.051c1.07-0.045,1.92-0.203,2.548-0.476
			c0.628-0.272,1.105-0.684,1.427-1.233c0.326-0.55,0.533-1.243,0.628-2.076c0.093-0.833,0.139-1.828,0.139-2.984v-8.553h2.048
			V40.638z"/>
		<path fill="#010101" d="M56.997,46.707c-0.389,0-0.682-0.069-0.882-0.208c-0.199-0.138-0.298-0.396-0.298-0.775
			c0-0.444,0.099-0.73,0.298-0.858c0.201-0.128,0.493-0.192,0.882-0.192h29.858c-0.552-0.511-0.952-1.109-1.199-1.792
			c-0.247-0.684-0.37-1.37-0.37-2.06c0-0.822,0.143-1.63,0.432-2.426c0.288-0.794,0.711-1.508,1.27-2.142
			c0.556-0.633,1.242-1.142,2.053-1.525c0.812-0.384,1.752-0.576,2.821-0.576c1.198,0,2.187,0.212,2.961,0.634
			c0.775,0.423,1.39,0.958,1.843,1.609c0.451,0.651,0.761,1.369,0.924,2.159c0.165,0.79,0.247,1.567,0.247,2.333v5.819H56.997z
			 M87.278,40.372c0,0.745,0.124,1.39,0.37,1.934c0.247,0.545,0.581,0.99,0.998,1.333c0.416,0.345,0.913,0.604,1.489,0.775
			c0.575,0.172,1.206,0.259,1.887,0.259h3.755v-3.701c0-0.567-0.057-1.142-0.177-1.726c-0.117-0.583-0.33-1.109-0.634-1.575
			c-0.306-0.467-0.729-0.848-1.27-1.143c-0.542-0.294-1.221-0.441-2.044-0.441c-0.672,0-1.28,0.111-1.825,0.333
			c-0.549,0.222-1.01,0.531-1.384,0.925c-0.377,0.395-0.664,0.851-0.864,1.367C87.377,39.229,87.278,39.783,87.278,40.372
			 M90.258,28.685c0-0.378,0.145-0.7,0.431-0.967c0.288-0.268,0.632-0.401,1.032-0.401c0.399,0,0.753,0.133,1.057,0.401
			c0.306,0.267,0.459,0.589,0.459,0.967c0,0.389-0.153,0.72-0.459,0.992c-0.304,0.272-0.658,0.409-1.057,0.409
			c-0.4,0-0.744-0.136-1.032-0.409C90.403,29.404,90.258,29.074,90.258,28.685"/>
		<path fill="#010101" d="M208.794,116.953l0.02-1.026l8.455-29.589l0.474-0.382l-0.369-0.421l-0.083-55.337
			c-0.188-0.358-0.332-0.738-0.461-1.123c-0.086-0.271-0.164-0.546-0.223-0.826c-0.024-0.113-0.047-0.229-0.065-0.342
			c-0.054-0.328-0.093-0.66-0.108-0.994c-0.002-0.048-0.011-0.099-0.014-0.146L168.491,5.313l0.49-0.382
			c-0.616-0.098-1.188-0.26-1.706-0.489l-0.386,0.155l-0.292-0.131c-0.367,0.247-0.767,0.456-1.199,0.628l0.063,0.075
			l-38.512,15.423l-0.389-0.15l-0.206,0.389l-0.266,0.107l0.017,0.371l-13.08,24.917l-0.521,0.406l0.352,0.445l2.066,60.229
			l-0.319,0.658l0.345,0.122l0.018,0.459l0.758-0.184l50.827,17.994l0.184,0.229l0.274-0.065l0.208,0.072l0.216-0.175l40.511-9.741
			L208.794,116.953z M167.186,124.463l-19.106-23.912l6.137-1.483l31.647,10.371L167.186,124.463z M128.107,63.705l-13.242-16.786
			l12.008-9.316L128.107,63.705z M127.852,22.743l10.291,3.994l-9.745,7.562L127.852,22.743z M139.966,27.445l35.638,13.829
			l-40.07,31.842l-5.639-7.148l-1.4-29.624L139.966,27.445z M177.166,42.173l18.778,21.44l-41.557,33.399L136.57,74.433
			L177.166,42.173z M209.559,79.157l5.77,6.587l-6,4.827L209.559,79.157z M194.618,36.008L215.222,29l-6.39,23.288L194.618,36.008z
			 M208.021,53.91l-10.767,8.653l-18.526-21.152l14.171-4.819L208.021,53.91z M208.375,55.775l-0.406,19.021l-9.609-10.97
			L208.375,55.775z M130.031,68.849l4.189,5.309l-3.796,3.016L130.031,68.849z M145.123,99.537l-27.826,6.716l12.541-25.843
			L145.123,99.537z M130.844,78.982l4.414-3.507l17.526,22.215l-5.862,1.413L130.844,78.982z M155.983,97.882l41.067-33.006
			l10.868,12.409l-0.297,14.657l-20.197,16.245L155.983,97.882z M207.578,94.13l-0.415,20.523l-17.836-5.844L207.578,94.13z
			 M208.947,109.359l0.336-16.601l5.72-4.6L208.947,109.359z M209.608,76.669l0.448-22.246l0.377-0.301l-0.28-0.319l5.465-19.913
			l0.074,49.727L209.608,76.669z M214.158,27.591l-20.732,7.05L170.016,7.833L214.158,27.591z M191.707,35.227l-14.417,4.9
			l-35.777-13.883l25.246-19.588L191.707,35.227z M161.638,8.507l-21.949,17.028l-10.451-4.053L161.638,8.507z M126.259,24.617
			l0.519,10.938l-10.556,8.189L126.259,24.617z M114.61,49.302l13.635,17.284l0.562,11.875l-0.323,0.255l0.194,0.245l-12.189,25.118
			L114.61,49.302z M118.709,107.641l27.569-6.655l18.288,22.888L118.709,107.641z M170.494,123.955l17.273-13.892l17.14,5.617
			L170.494,123.955z"/>
		<path fill="#C2529D" d="M137.309,74.175c0-2.3-3.571-2.302-3.569,0.002C133.739,76.478,137.309,76.478,137.309,74.175"/>
		<path fill="#F05E2A" d="M210.406,77.187c0-2.3-3.569-2.3-3.569,0S210.406,79.487,210.406,77.187"/>
		<path fill="#95C83F" d="M198.7,63.788c0-2.297-3.568-2.297-3.566,0C195.133,66.09,198.7,66.09,198.7,63.788"/>
		<path fill="#95C83F" d="M210.406,92.444c0-2.301-3.569-2.301-3.569,0C206.837,94.746,210.406,94.746,210.406,92.444"/>
		<path fill="#95C83F" d="M189.918,108.787c0-2.3-3.566-2.3-3.566,0S189.92,111.086,189.918,108.787"/>
		<path fill="#F05E2A" d="M148.866,99.909c0-2.676-4.146-2.676-4.146,0C144.72,102.584,148.866,102.584,148.866,99.909"/>
		<path fill="#29ABD7" d="M179.308,41.005c0-2.302-3.57-2.302-3.568-0.002C175.738,43.303,179.308,43.303,179.308,41.005"/>
		<path fill="#95C83F" d="M169.951,6.496c0-4.348-6.743-4.342-6.743,0C163.208,10.847,169.951,10.847,169.951,6.496"/>
		<path fill="#C2529D" d="M212.509,53.668c0-5.013-7.771-5.008-7.773,0C204.736,58.684,212.509,58.684,212.509,53.668"/>
		<path fill="#29ABD7" d="M159.252,97.897c0-5.327-8.264-5.322-8.264,0.002C150.988,103.235,159.252,103.235,159.252,97.897"/>
		<path fill="#29ABD7" d="M217.461,28.24c0-3.199-4.959-3.197-4.962-0.002C212.499,31.441,217.463,31.441,217.461,28.24"/>
		<path fill="#F05E2A" d="M209.794,114.817c0-3.261-5.058-3.259-5.058-0.002C204.736,118.081,209.794,118.079,209.794,114.817"/>
		<path fill="#29ABD7" d="M129.991,21.703c0-3.461-5.37-3.457-5.37,0C124.62,25.169,129.991,25.169,129.991,21.703"/>
		<path fill="#C2529D" d="M219.185,85.641c0-3.2-4.959-3.197-4.961-0.002C214.223,88.843,219.187,88.843,219.185,85.641"/>
		<path fill="#F05E2A" d="M195.133,35.564c0-2.509-3.895-2.509-3.893-0.002C191.238,38.072,195.133,38.072,195.133,35.564"/>
		<path fill="#F05E2A" d="M142.019,26.362c0-2.512-3.895-2.512-3.893-0.002C138.124,28.866,142.019,28.866,142.019,26.362"/>
		<path fill="#95C83F" d="M129.302,36.124c0-2.51-3.895-2.51-3.893-0.002C125.407,38.631,129.302,38.631,129.302,36.124"/>
		<path fill="#F05E2A" d="M130.923,65.939c0-2.512-3.895-2.512-3.893-0.002C127.028,68.444,130.923,68.444,130.923,65.939"/>
		<path fill="#95C83F" d="M131.769,78.917c0-2.512-3.895-2.512-3.893-0.003C127.874,81.421,131.769,81.421,131.769,78.917"/>
		<path fill="#29ABD7" d="M169.778,124.977c0-3.762-5.836-3.758-5.836-0.002C163.942,128.744,169.778,128.742,169.778,124.977"/>
		<path fill="#F05E2A" d="M115.114,47.021c0-3.26-5.058-3.258-5.058-0.002C110.056,50.286,115.114,50.284,115.114,47.021"/>
		<path fill="#C2529D" d="M118.861,106.905c0-3.168-4.918-3.171-4.916,0.003C113.945,110.077,118.861,110.077,118.861,106.905"/>
	</g>
</g>
<g id="Layer_34" display="none">
</g>
<g id="Layer_35" display="none">
</g>
<g id="Layer_33" display="none">
</g>
<g id="mapimage" display="none">
</g>
<g id="Layer_36">
</g>
</svg>
